<svg xmlns="http://www.w3.org/2000/svg" xmlns:xlink="http://www.w3.org/1999/xlink" viewBox="0 0 2624.91 897.9"><defs><style>.cls-1,.cls-17,.cls-20{fill:none;}.cls-2{clip-path:url(#clip-path);}.cls-18,.cls-21,.cls-3{fill:#fff;}.cls-20,.cls-3,.cls-4,.cls-5{stroke:#000;stroke-miterlimit:10;}.cls-3,.cls-4,.cls-5{stroke-width:4px;}.cls-4{fill:#2e3192;}.cls-5{fill:#777;}.cls-10,.cls-12,.cls-6,.cls-9{isolation:isolate;}.cls-6{font-size:47.39px;fill:#18aa0c;}.cls-10,.cls-12,.cls-6{font-family:Dubai-Bold, Dubai;font-weight:700;}.cls-7{letter-spacing:-0.01em;}.cls-8{letter-spacing:-0.02em;}.cls-10{opacity:0.95;fill:#2ca4e3;}.cls-10,.cls-12{font-size:44.31px;}.cls-11{letter-spacing:-0.03em;}.cls-12{fill:#0087c8;}.cls-13{letter-spacing:-0.02em;}.cls-14{clip-path:url(#clip-path-2);}.cls-15{letter-spacing:-0.01em;}.cls-16{letter-spacing:-0.02em;}.cls-17{stroke:#fff;stroke-linecap:round;stroke-linejoin:round;stroke-width:10px;}.cls-19{fill:#fb8e28;}.cls-20{stroke-width:2px;}.cls-21{font-size:48px;font-family:FiraSans-Regular, Fira Sans;}.cls-22{letter-spacing:-0.01em;}.cls-23{letter-spacing:-0.01em;}.cls-24{letter-spacing:-0.01em;}.cls-25{letter-spacing:0em;}.cls-26{letter-spacing:-0.02em;}.cls-27{letter-spacing:0em;}</style><clipPath id="clip-path" transform="translate(461.17 -104.4)"><rect class="cls-1" x="52.37" y="202.01" width="304.09" height="382.12"/></clipPath><clipPath id="clip-path-2" transform="translate(461.17 -104.4)"><rect class="cls-1" x="52.42" y="616.29" width="303.98" height="361.41"/></clipPath></defs><g id="Layer_1" data-name="Layer 1"><g class="cls-2"><g id="Layer_3" data-name="Layer 3"><path class="cls-3" d="M774.3,296.17a88.46,88.46,0,0,1,34.47,10.46,86.18,86.18,0,0,1,13.54,9.23l1,4,3.89,28.59,3.08,36.93,1.84,57.85-1.23,69.65v21.44c-3.25.53-8.16,1.25-14.15,1.85a223,223,0,0,1-50.47-.62c-4.23-.55-10.16-1.45-17.23-3V488.19l2.46-75.09,5.54-73.85,4.2-42.56Z" transform="translate(461.17 -104.4)"/><path class="cls-4" d="M726,350.63a103.91,103.91,0,0,0-17.85,12.31,102.46,102.46,0,0,0-22.77,27.7A96.92,96.92,0,0,0,674.9,419a94.89,94.89,0,0,0,.62,36.93A95.93,95.93,0,0,0,694,495.27a91.46,91.46,0,0,0,27.7,23.38,87.33,87.33,0,0,0,27.69,9.24l-.3-15.08a86.14,86.14,0,0,1-10.77-3.39,76,76,0,0,1-24-15.38,76.92,76.92,0,0,1-18.46-24c-10-20.9-6.83-40.67-5.54-48a82,82,0,0,1,10.46-28.31,77.66,77.66,0,0,1,31.39-28.32l20,42.78,1.24-20.93-12.62-25.54,15.08-4,1.23-16.62-14.47,3.39-8,3.08L726,332.17A31.32,31.32,0,0,1,719.83,318c-.48-3.18-1.09-7.14,1.23-9.84,1.21-1.4,2.82-2,5.54-3.08,3.47-1.34,4.49-1,6.77-1.85,4.18-1.51,6.59-4.7,8.62-7.38a24.3,24.3,0,0,0,4.92-10.47c.36-1.9,1.71-9.07-2.46-14.15-.81-1-2.54-3.1-4.92-3.08-3.51,0-5.76,4.67-6.16,5.54-1.54,3.38-1.12,6.56-.61,10.46.68,5.23,2.15,7.78,1.23,12.31a7.71,7.71,0,0,1-1.23,3.08c-1.62,2.28-4.88,4-7.39,3.08-1.69-.6-2.68-2.24-3.69-4.93-2.22-5.89-2.3-10.83-2.46-17.23-.24-9.38-.42-12.21-.62-14.77a47.55,47.55,0,0,0-2.46-12.92c-1.73-4.89-3.34-6.56-4.31-7.39-.68-.59-2.09-1.67-7.38-3.08s-12.93-1.23-15.39-.61c-.92.22-.59,1.91-.62,2.46a6.42,6.42,0,0,0,1.24,4.31c1.33,1.47,2.83.67,7.38,1.84,2.7.7,4.22,1.12,4.92,2.47.57,1.08.36,2.28,0,4.3s-.54,3.11-1.23,3.7c-1.58,1.36-3.86-.8-8.61-1.23-3.39-.31-2.88.72-9.85,1.23-3.79.27-5.27.06-6.16,1.23-1,1.38-.78,4.06.62,5.54,1.64,1.72,3.85.79,11.08,1.23,6.2.37,7.8,1.25,8.62,2.46a5.61,5.61,0,0,1,.61,3.69c-.67,11.43.75,11.39-.61,17.23a41.11,41.11,0,0,1-3.08,8.62c-8.13,17-9.38,23.11-20.93,48.62C657.67,382,653.36,390,648.44,403c-1.29,3.37.26,7.35,0,16.62-.47,16.31-2.08,24.53,0,25.23.44.15,2.06.3,7.38-8.62,8-13.44,10.52-24.18,14.16-34.46,3.95-11.16,4.54-8.51,11.69-25.24,10.6-24.78,18.06-51.14,20.93-50.46.57.13.55,1.24,2.46,3.07a9.89,9.89,0,0,0,3.69,2.46c3,1,4.41-.84,6.77,0,1.32.47,2.11,1.48,3.7,4.31,1.39,2.49,2.77,6.17,4.92,10.47C724.76,347.56,726,350.63,726,350.63Z" transform="translate(461.17 -104.4)"/><path class="cls-4" d="M830.31,387.25a62,62,0,0,1,6.15,6.77A59.28,59.28,0,0,1,846.31,415c1.32,5.58,1.29,9.67,1.23,17.85a100.73,100.73,0,0,1-1.85,20.92c-1.44,7.15-3.32,15.93-9.84,24.62-1.21,1.61-2.93,3.48-3.7,4.31l-.61,22.77c5.4-4.74,14.47-13.37,20.92-25.23a95.8,95.8,0,0,0,9.85-28.93,89.29,89.29,0,0,0-.61-36.93,93.54,93.54,0,0,0-11.08-26.46,108.5,108.5,0,0,0-11.08-14.77,122.07,122.07,0,0,0-10.46-9.85Z" transform="translate(461.17 -104.4)"/><path class="cls-3" d="M220.39,293.94a88.37,88.37,0,0,1,34.46,10.46,85.71,85.71,0,0,1,13.54,9.23l1,4,3.89,28.59,3.07,36.93L278.24,441,277,510.68v21.44c-3.26.53-8.16,1.26-14.16,1.85a223,223,0,0,1-50.47-.62c-4.22-.55-10.16-1.45-17.23-3V486l2.46-75.08L203.15,337l4.2-42.56Z" transform="translate(461.17 -104.4)"/><path class="cls-5" d="M172.07,348.41a103.72,103.72,0,0,0-17.85,12.31,102.31,102.31,0,0,0-22.77,27.69A96.77,96.77,0,0,0,121,416.72a94.61,94.61,0,0,0,.61,36.93A95.9,95.9,0,0,0,140.07,493a91.6,91.6,0,0,0,27.69,23.39,87.23,87.23,0,0,0,27.7,9.23l-.31-15.08a87.19,87.19,0,0,1-10.77-3.39,75.49,75.49,0,0,1-24-15.38,76.82,76.82,0,0,1-18.47-24c-10-20.91-6.83-40.68-5.53-48a81.76,81.76,0,0,1,10.46-28.31,77.56,77.56,0,0,1,31.39-28.31l20,42.77L199.46,385l-12.62-25.55,15.08-4,1.23-16.61-14.46,3.38-8,3.08-8.62-15.39a31.18,31.18,0,0,1-6.15-14.15c-.49-3.19-1.1-7.15,1.23-9.85,1.2-1.4,2.82-2,5.54-3.08,3.46-1.34,4.48-1,6.77-1.84,4.17-1.52,6.58-4.71,8.61-7.39A24.3,24.3,0,0,0,193,283.17c.35-1.9,1.71-9.07-2.46-14.16-.81-1-2.55-3.09-4.93-3.08-3.51,0-5.75,4.67-6.15,5.54-1.55,3.38-1.13,6.56-.62,10.47.69,5.22,2.15,7.78,1.23,12.31a7.67,7.67,0,0,1-1.23,3.07c-1.61,2.29-4.88,4-7.38,3.08-1.7-.6-2.68-2.23-3.7-4.92-2.22-5.89-2.3-10.84-2.46-17.24-.24-9.38-.41-12.21-.61-14.77a47.58,47.58,0,0,0-2.47-12.92c-1.73-4.89-3.34-6.56-4.3-7.39-.69-.59-2.1-1.67-7.39-3.08s-12.92-1.23-15.39-.61c-.92.23-.58,1.91-.61,2.46a6.32,6.32,0,0,0,1.23,4.31c1.34,1.48,2.83.67,7.39,1.85,2.69.69,4.21,1.11,4.92,2.46.57,1.08.36,2.28,0,4.31s-.55,3.1-1.23,3.69c-1.58,1.36-3.86-.8-8.62-1.23-3.39-.31-2.88.72-9.85,1.23-3.78.28-5.26.07-6.15,1.23-1,1.38-.79,4.06.61,5.54,1.64,1.72,3.85.79,11.08,1.23,6.21.37,7.81,1.25,8.62,2.46a5.62,5.62,0,0,1,.62,3.69c-.68,11.43.74,11.4-.62,17.24a40,40,0,0,1-3.08,8.61c-8.13,17-9.37,23.11-20.92,48.62-14.77,32.62-19.08,40.63-24,53.55-1.28,3.37.27,7.35,0,16.62-.46,16.31-2.08,24.54,0,25.23.44.15,2.07.3,7.39-8.61,8-13.45,10.52-24.19,14.15-34.47,4-11.16,4.55-8.51,11.7-25.23,10.59-24.78,18.06-51.14,20.92-50.47.58.13.56,1.25,2.47,3.07a9.93,9.93,0,0,0,3.69,2.47c3,1,4.41-.85,6.77,0,1.31.46,2.1,1.47,3.69,4.3,1.39,2.49,2.78,6.17,4.93,10.47C170.84,345.33,172.07,348.41,172.07,348.41Z" transform="translate(461.17 -104.4)"/><path class="cls-5" d="M276.39,385a54.35,54.35,0,0,1,16,27.69c1.33,5.58,1.3,9.67,1.24,17.85a102.27,102.27,0,0,1-1.85,20.93c-1.45,7.14-3.32,15.92-9.85,24.61-1.2,1.61-2.92,3.48-3.69,4.31l-.62,22.77c5.41-4.74,14.47-13.37,20.93-25.23A95.69,95.69,0,0,0,308.4,449a89.29,89.29,0,0,0-.62-36.92,93.11,93.11,0,0,0-11.08-26.47,106.67,106.67,0,0,0-11.08-14.77A120.61,120.61,0,0,0,275.16,361Z" transform="translate(461.17 -104.4)"/></g><g id="Layer_2" data-name="Layer 2"><rect class="cls-1" x="676.94" y="230.18" width="45.91" height="164.03"/><text class="cls-6" transform="translate(710.16 394.21) rotate(-90)">Hu<tspan class="cls-7" x="59.71" y="0">b</tspan><tspan class="cls-8" x="85.07" y="0">wa</tspan><tspan x="139.66" y="0">y</tspan></text><rect class="cls-1" x="1235.76" y="67.27" width="66.87" height="349.83"/><g class="cls-9"><text class="cls-10" transform="translate(1266.82 417.11) rotate(-90)">B<tspan class="cls-11" x="27.03" y="0">L</tspan><tspan x="48.79" y="0">UE</tspan></text><text class="cls-12" transform="translate(1266.82 312.04) rotate(-90)">bi<tspan class="cls-13" x="35.49" y="0">k</tspan><tspan x="57.65" y="0">es</tspan></text></g></g></g><g class="cls-14"><g id="Layer_3-2" data-name="Layer 3"><path class="cls-3" d="M221.65,698.24a88.37,88.37,0,0,1,34.46,10.46,87.08,87.08,0,0,1,13.54,9.23l1,4,3.89,28.59,3.07,36.93,1.85,57.85L278.27,915v21.43c-3.26.53-8.16,1.26-14.16,1.85a222.91,222.91,0,0,1-50.46-.62c-4.23-.55-10.17-1.45-17.24-3V890.26l2.46-75.08,5.54-73.86,4.2-42.56Z" transform="translate(461.17 -104.4)"/><path class="cls-4" d="M173.33,752.71A104.11,104.11,0,0,0,155.48,765a102.47,102.47,0,0,0-22.77,27.69A96.77,96.77,0,0,0,122.25,821a94.61,94.61,0,0,0,.61,36.93,95.9,95.9,0,0,0,18.47,39.39A91.6,91.6,0,0,0,169,920.73a87.23,87.23,0,0,0,27.7,9.23l-.31-15.08a88.63,88.63,0,0,1-10.77-3.38,75.65,75.65,0,0,1-24-15.39,76.82,76.82,0,0,1-18.47-24c-10-20.9-6.83-40.68-5.53-48a81.76,81.76,0,0,1,10.46-28.31,77.56,77.56,0,0,1,31.39-28.31l20,42.77,1.23-20.92L188.1,763.79l15.08-4,1.23-16.62L190,746.55l-8,3.08-8.62-15.39a31.14,31.14,0,0,1-6.15-14.15c-.49-3.18-1.1-7.15,1.23-9.85,1.21-1.4,2.82-2,5.54-3.08,3.46-1.34,4.48-1,6.77-1.84,4.17-1.52,6.58-4.7,8.61-7.39a24.24,24.24,0,0,0,4.93-10.46c.36-1.9,1.71-9.07-2.46-14.16-.81-1-2.55-3.09-4.93-3.07-3.51,0-5.75,4.66-6.15,5.54-1.55,3.37-1.13,6.56-.62,10.46.69,5.22,2.15,7.78,1.23,12.31a7.61,7.61,0,0,1-1.23,3.07c-1.61,2.29-4.88,4-7.38,3.08-1.7-.6-2.68-2.23-3.7-4.92-2.22-5.89-2.3-10.84-2.46-17.23-.24-9.38-.41-12.22-.61-14.78a48,48,0,0,0-2.46-12.92c-1.73-4.89-3.35-6.56-4.31-7.39-.69-.59-2.1-1.66-7.39-3.07s-12.92-1.23-15.39-.62c-.92.23-.58,1.91-.61,2.46a6.31,6.31,0,0,0,1.23,4.31c1.34,1.48,2.83.67,7.39,1.85,2.69.69,4.21,1.11,4.92,2.46.57,1.08.36,2.28,0,4.31s-.55,3.11-1.23,3.69c-1.58,1.36-3.86-.79-8.62-1.23-3.39-.31-2.88.73-9.85,1.23-3.78.28-5.26.07-6.15,1.23-1,1.38-.79,4.06.62,5.54,1.63,1.72,3.84.79,11.07,1.23,6.21.38,7.81,1.25,8.62,2.46a5.65,5.65,0,0,1,.62,3.7c-.68,11.42.74,11.39-.62,17.23a40.4,40.4,0,0,1-3.08,8.62c-8.13,17-9.37,23.1-20.92,48.62C105,784.1,100.71,792.1,95.78,805c-1.28,3.37.27,7.36,0,16.62-.46,16.32-2.08,24.54,0,25.23.44.15,2.07.3,7.39-8.61,8-13.45,10.52-24.19,14.16-34.47,3.94-11.16,4.54-8.5,11.69-25.23,10.59-24.78,18.06-51.14,20.92-50.47.58.13.56,1.25,2.47,3.08a10,10,0,0,0,3.69,2.46c3,1,4.41-.84,6.77,0,1.31.47,2.1,1.47,3.69,4.31,1.39,2.48,2.78,6.16,4.93,10.46C172.1,749.63,173.33,752.71,173.33,752.71Z" transform="translate(461.17 -104.4)"/><path class="cls-4" d="M277.65,789.33a54.43,54.43,0,0,1,16,27.69c1.32,5.59,1.29,9.67,1.23,17.85A102.27,102.27,0,0,1,293,855.8c-1.45,7.14-3.32,15.93-9.85,24.62-1.2,1.6-2.92,3.47-3.69,4.3l-.62,22.78c5.41-4.75,14.47-13.38,20.93-25.24a95.7,95.7,0,0,0,9.85-28.92,89.35,89.35,0,0,0-.62-36.93A93.11,93.11,0,0,0,298,789.94a107.13,107.13,0,0,0-11.07-14.77,123.64,123.64,0,0,0-10.47-9.85Z" transform="translate(461.17 -104.4)"/><path class="cls-3" d="M-332.27,696a88.46,88.46,0,0,1,34.47,10.46,86.87,86.87,0,0,1,13.54,9.24l1,4,3.89,28.6,3.08,36.92,1.84,57.86-1.23,69.65V934.2c-3.25.52-8.16,1.25-14.15,1.84a223.21,223.21,0,0,1-50.47-.61c-4.23-.56-10.16-1.46-17.23-3V888L-355,813l5.54-73.86,4.2-42.56Z" transform="translate(461.17 -104.4)"/><path class="cls-5" d="M-380.58,750.48a103.34,103.34,0,0,0-17.85,12.31,102.47,102.47,0,0,0-22.77,27.69,96.94,96.94,0,0,0-10.47,28.32,94.62,94.62,0,0,0,.62,36.92,95.86,95.86,0,0,0,18.46,39.39,91.55,91.55,0,0,0,27.7,23.39,86.93,86.93,0,0,0,27.69,9.23l-.3-15.08a84.2,84.2,0,0,1-10.77-3.38,75.85,75.85,0,0,1-24-15.39,77,77,0,0,1-18.46-24c-10-20.9-6.83-40.68-5.54-48a82.07,82.07,0,0,1,10.46-28.31,77.62,77.62,0,0,1,31.39-28.31l20,42.78,1.24-20.93-12.62-25.54,15.08-4,1.23-16.62L-364,744.33l-8,3.07L-380.58,732a31.32,31.32,0,0,1-6.16-14.16c-.48-3.18-1.09-7.15,1.23-9.85,1.21-1.39,2.82-2,5.54-3.07,3.47-1.35,4.49-1,6.77-1.85,4.18-1.51,6.59-4.7,8.62-7.39a24.25,24.25,0,0,0,4.92-10.46c.36-1.9,1.71-9.07-2.46-14.15-.81-1-2.54-3.1-4.92-3.08-3.51,0-5.76,4.66-6.16,5.54-1.54,3.38-1.12,6.56-.61,10.46.68,5.23,2.15,7.78,1.23,12.31a7.71,7.71,0,0,1-1.23,3.08c-1.62,2.28-4.88,4-7.39,3.07-1.69-.59-2.68-2.23-3.69-4.92-2.22-5.89-2.3-10.84-2.46-17.23-.24-9.38-.42-12.21-.62-14.77a47.69,47.69,0,0,0-2.46-12.93c-1.73-4.89-3.34-6.55-4.31-7.38-.68-.6-2.09-1.67-7.38-3.08s-12.93-1.23-15.39-.62c-.92.23-.59,1.91-.62,2.46a6.43,6.43,0,0,0,1.23,4.31c1.34,1.48,2.84.67,7.39,1.85,2.7.69,4.22,1.11,4.92,2.46.57,1.08.36,2.28,0,4.31s-.54,3.11-1.23,3.69c-1.58,1.36-3.86-.79-8.61-1.23-3.39-.31-2.88.73-9.85,1.23-3.79.28-5.27.07-6.16,1.23-1.05,1.38-.78,4.07.62,5.54,1.64,1.73,3.85.8,11.08,1.23,6.2.38,7.8,1.25,8.61,2.47a5.56,5.56,0,0,1,.62,3.69c-.67,11.42.75,11.39-.62,17.23a40.91,40.91,0,0,1-3.07,8.62c-8.13,17-9.38,23.1-20.93,48.62-14.77,32.62-19.08,40.62-24,53.54-1.29,3.38.26,7.36,0,16.62-.47,16.32-2.08,24.54,0,25.24.44.14,2.06.3,7.38-8.62,8-13.45,10.52-24.19,14.16-34.47,3.95-11.16,4.54-8.5,11.69-25.23,10.6-24.78,18.06-51.14,20.93-50.47.57.14.55,1.25,2.46,3.08a10.13,10.13,0,0,0,3.69,2.46c3,1,4.41-.84,6.77,0,1.32.47,2.11,1.47,3.7,4.31,1.39,2.49,2.77,6.17,4.92,10.46C-381.81,747.4-380.58,750.48-380.58,750.48Z" transform="translate(461.17 -104.4)"/><path class="cls-5" d="M-276.26,787.1a60.17,60.17,0,0,1,6.15,6.77,59.19,59.19,0,0,1,9.85,20.93c1.32,5.58,1.29,9.66,1.23,17.84a100.82,100.82,0,0,1-1.85,20.93c-1.44,7.15-3.32,15.93-9.84,24.62-1.21,1.6-2.93,3.48-3.7,4.31l-.61,22.77c5.4-4.75,14.47-13.38,20.92-25.24a95.7,95.7,0,0,0,9.85-28.92,89.3,89.3,0,0,0-.61-36.93,93.43,93.43,0,0,0-11.08-26.46A109,109,0,0,0-267,772.94a123.38,123.38,0,0,0-10.46-9.84Z" transform="translate(461.17 -104.4)"/></g><g id="Layer_2-2" data-name="Layer 2"><rect class="cls-1" x="124.28" y="632.25" width="45.91" height="164.03"/><text class="cls-6" transform="translate(157.5 796.28) rotate(-90)">Hu<tspan class="cls-15" x="59.71" y="0">b</tspan><tspan class="cls-8" x="85.07" y="0">wa</tspan><tspan x="139.66" y="0">y</tspan></text><rect class="cls-1" x="683.1" y="469.34" width="66.87" height="349.83"/><g class="cls-9"><text class="cls-10" transform="translate(714.17 819.18) rotate(-90)">B<tspan class="cls-11" x="27.03" y="0">L</tspan><tspan x="48.79" y="0">UE</tspan></text><text class="cls-12" transform="translate(714.17 714.12) rotate(-90)">bi<tspan class="cls-16" x="35.5" y="0">k</tspan><tspan x="57.65" y="0">es</tspan></text></g></g><g id="Layer_4" data-name="Layer 4"><line class="cls-17" x1="306.77" y1="702.78" x2="431.07" y2="702.78"/><polygon class="cls-18" points="426.06 665.39 426.06 740.16 463.43 702.77 426.06 665.39"/><circle class="cls-19" cx="687.43" cy="685.54" r="4.31"/></g></g></g><g id="Layer_2-3" data-name="Layer 2"><line class="cls-20" x1="522.45" y1="511.89" x2="2624.91" y2="511.89"/><line class="cls-20" x1="831.55" y1="100.28" x2="831.55" y2="897.9"/><text class="cls-21" transform="translate(864.9 40.54)">Membe<tspan class="cls-22" x="158.49" y="0">r</tspan><tspan x="176.16" y="0">ship</tspan></text><line class="cls-20" x1="1171.64" y1="100.28" x2="1171.64" y2="897.9"/><line class="cls-20" x1="1905.93" y1="100.28" x2="1905.93" y2="897.9"/><line class="cls-20" x1="1528.06" y1="100.28" x2="1528.06" y2="897.9"/><text class="cls-21" transform="translate(1280.99 40.54)">A<tspan class="cls-22" x="27.5" y="0">cc</tspan><tspan x="71.95" y="0">e</tspan><tspan class="cls-23" x="98.06" y="0">s</tspan><tspan x="120" y="0">s</tspan></text><text class="cls-21" transform="translate(1682.77 40.54)">App</text><text class="cls-21" transform="translate(2002.42 40.54)"><tspan class="cls-24">W</tspan><tspan class="cls-25" x="39.17" y="0">e</tspan><tspan x="65.04" y="0">ather</tspan></text><line class="cls-20" x1="2263.38" y1="100.28" x2="2263.38" y2="897.9"/><text class="cls-21" transform="translate(2432.06 40.54)"><tspan class="cls-26">P</tspan><tspan x="26.93" y="0">ri</tspan><tspan class="cls-22" x="58.56" y="0">c</tspan><tspan class="cls-27" x="80.78" y="0">e</tspan></text></g></svg>